<?xml version="1.0" encoding="utf-8"?>

<!-- License Agreement at http://iconmonstr.com/license/ -->

<!DOCTYPE svg PUBLIC "-//W3C//DTD SVG 1.1//EN" "http://www.w3.org/Graphics/SVG/1.1/DTD/svg11.dtd">
<svg version="1.1" xmlns="http://www.w3.org/2000/svg" xmlns:xlink="http://www.w3.org/1999/xlink" x="0px" y="0px"
	 width="512px" height="512px" viewBox="0 0 512 512" enable-background="new 0 0 512 512" xml:space="preserve">
<path id="fingerprint-icon" d="M381.863,343.492c5.967,1.945,8.962,8.547,6.56,14.287c-2.295,5.487-8.432,8.277-14.079,6.416
	c-44.566-14.688-74.195-35.606-89.996-63.392c-3.01-5.292-1.159-12.022,4.133-15.032c5.29-3.01,12.021-1.16,15.032,4.134
	C316.625,312.962,342.426,330.649,381.863,343.492z M235.593,333.009c-14.454,8.44-38.687,22.585-89.02,37.528
	c-6.975,2.07-10.154,10.146-6.505,16.405c2.118,3.932,7.198,6.386,12.219,4.9c46.026-13.613,71.566-26.729,87.568-35.83
	c15.884-9.034,17.368-9.187,32.413,1.898c14.579,10.742,39.341,26.388,83.333,42.507c5.044,1.85,10.414-0.42,12.727-4.274
	c3.892-5.995,1.212-14.084-5.526-16.559c-52.509-19.286-75.364-37.527-86.735-46.605
	C261.33,321.214,256.379,320.871,235.593,333.009z M231.105,385.667c-10.86,5.629-27.236,14.117-55.364,23.91
	c-3.652,1.271-6.389,4.335-7.241,8.106c-1.839,8.155,5.854,15.709,13.448,13.083c30.178-10.431,47.732-19.527,59.305-25.525
	c8.821-4.572,14.226-5.514,24.343-0.027c12.808,6.941,33.003,17.882,61.181,29.271c7.966,3.22,16.091-3.867,14.584-12.252
	c-0.68-3.791-3.261-6.958-6.828-8.405c-26.88-10.897-46.167-21.35-58.43-27.997C256.801,375.371,254.553,373.514,231.105,385.667z
	 M219.283,440.208c-3.882,1.812-6.287,5.784-6.098,10.062c0.377,8.518,10.119,12.413,16.249,9.532
	c28.946-13.601,18.892-13.161,51.54,1.351c5.902,2.624,15.677-0.933,16.136-9.505c0.234-4.392-2.271-8.47-6.294-10.25
	C248.313,422.591,259.705,421.326,219.283,440.208z M259.373,197.596c2.357-5.613-0.28-12.075-5.895-14.433
	c-5.613-2.357-12.074,0.283-14.435,5.895c-18.011,42.878-63.533,75.951-123.515,90.525c-5.703,1.386-9.383,6.932-8.429,12.723
	c1.026,6.208,7.111,10.273,13.28,8.781C179.47,286.77,235.911,253.448,259.373,197.596z M270.386,268.606
	c13.998-16.001,25.14-33.739,33.113-52.721c8.015-19.077,6.633-38.299-3.886-54.129c-10.998-16.549-30.907-26.83-51.957-26.83
	c-11.892,0-23.339,3.295-33.104,9.53c-10.678,6.819-19.111,17.063-24.386,29.626c-11.014,26.218-39.921,47.293-79.243,58.545
	c-4.909,1.405-8.272,5.934-8.184,11.041c0.125,7.136,6.989,12.21,13.845,10.252c45.981-13.142,80.28-38.853,93.911-71.303
	c7.563-18.02,22.507-25.644,37.16-25.644c24.325,0,47.851,21.01,35.516,50.373c-26.045,62-87.021,101.907-155.932,119.446
	c-3.04,0.773-5.615,2.784-7.107,5.542c-1.492,2.757-1.772,6.019-0.754,8.984c1.828,5.319,7.413,8.331,12.863,6.949
	c33.786-8.565,65.038-21.98,91.484-39.38C241.572,297.148,257.271,283.597,270.386,268.606z M171.297,162.159
	c5.004-8.596,9.732-16.716,17.868-24.271c19.247-17.872,45.334-26.498,71.581-23.677c24.759,2.666,46.573,15.136,59.847,34.212
	c18.382,26.417,13.769,52.642,9.306,78.003c-3.815,21.683-7.76,44.105,4.487,63.731c9.249,14.818,26.757,26.045,54.096,34.429
	c5.782,1.773,11.898-1.672,13.365-7.545c1.479-5.925-1.925-11.952-7.759-13.758c-21.217-6.564-34.736-14.766-40.997-24.8
	c-7.773-12.455-4.856-29.037-1.479-48.237c4.746-26.972,10.652-60.54-12.923-94.418c-16.922-24.32-44.472-40.188-75.583-43.538
	c-32.593-3.51-65.015,7.221-88.943,29.44c-10.538,9.785-16.586,20.171-21.921,29.334c-8.399,14.428-15.473,26.538-39.376,34.433
	c-3.796,1.254-6.789,4.485-7.413,9.258c-1.021,7.904,6.561,14.193,14.158,11.698C151.626,195.937,161.593,178.825,171.297,162.159z
	 M136.217,133.146c2.066-3.131,4.207-6.367,6.599-9.82c26.371-38.06,72.983-56.727,124.695-49.931
	c49.149,6.458,89.503,34.576,102.804,71.63c11.792,32.848,7.13,59.382,3.384,80.704c-3.235,18.412-6.029,34.314,3.748,47.075
	c3.969,5.18,9.625,9.186,17.389,12.188c6.479,2.506,13.564-1.812,14.351-8.673c0.595-5.193-2.323-10.136-7.155-12.134
	c-3.323-1.374-5.69-2.972-7.083-4.79c-3.888-5.075-1.966-16.008,0.466-29.85c3.976-22.627,9.421-53.616-4.347-91.969
	c-16.062-44.744-63.433-78.517-120.684-86.04c-49.847-6.546-100.733,7.698-134.877,45.607c-7.277,8.192-11.756,14.118-16.097,24.177
	c-2.831,6.562-1.725,11.297,3.032,14.562C127.126,139.095,133.109,137.848,136.217,133.146z"/>
</svg>
