<?xml version="1.0" encoding="utf-8"?>

<!-- The icon can be used freely in both personal and commercial projects with no attribution required, but always appreciated. 
You may NOT sub-license, resell, rent, redistribute or otherwise transfer the icon without express written permission from iconmonstr.com -->

<!DOCTYPE svg PUBLIC "-//W3C//DTD SVG 1.1//EN" "http://www.w3.org/Graphics/SVG/1.1/DTD/svg11.dtd">
<svg version="1.1" xmlns="http://www.w3.org/2000/svg" xmlns:xlink="http://www.w3.org/1999/xlink" x="0px" y="0px"
	 width="512px" height="512px" viewBox="0 0 512 512" enable-background="new 0 0 512 512" xml:space="preserve">
<path id="photo-camera-4-icon" d="M339.652,277.479c0,29.39-23.909,53.299-53.299,53.299c-29.389,0-53.298-23.909-53.298-53.299
	c0-29.389,23.909-53.298,53.298-53.298C315.743,224.181,339.652,248.09,339.652,277.479z M462,148.125v267H50v-267h113.219
	c11.253,0,21.56-6.297,26.694-16.31l17.919-34.94h153.665l19.819,35.785c5.286,9.543,15.335,15.465,26.244,15.465H462z
	 M154.831,206.375c0-11.322-9.178-20.5-20.5-20.5s-20.5,9.178-20.5,20.5s9.178,20.5,20.5,20.5S154.831,217.697,154.831,206.375z
	 M385.5,277.479c0-54.669-44.477-96.854-99.146-96.854c-54.669,0-99.146,42.185-99.146,96.854c0,54.67,44.477,99.146,99.146,99.146
	C341.023,376.625,385.5,332.148,385.5,277.479z M142.331,104.625h-65.5v27h65.5V104.625z"/>
</svg>
