<?xml version="1.0" encoding="utf-8"?>


<!-- The icon can be used freely in both personal and commercial projects with no attribution required, but always appreciated. 
You may NOT sub-license, resell, rent, redistribute or otherwise transfer the icon without express written permission from iconmonstr.com -->


<!DOCTYPE svg PUBLIC "-//W3C//DTD SVG 1.1//EN" "http://www.w3.org/Graphics/SVG/1.1/DTD/svg11.dtd">

<svg version="1.1" xmlns="http://www.w3.org/2000/svg" xmlns:xlink="http://www.w3.org/1999/xlink" x="0px" y="0px"

	 width="512px" height="512px" viewBox="0 0 512 512" enable-background="new 0 0 512 512" xml:space="preserve">

<path id="edit-10-icon" d="M256,90c91.743,0,166,74.245,166,166c0,91.743-74.245,166-166,166c-91.743,0-166-74.245-166-166

	C90,164.257,164.245,90,256,90 M256,50C142.229,50,50,142.229,50,256s92.229,206,206,206s206-92.229,206-206S369.771,50,256,50

	L256,50z M181.25,275.854l56.86,56.828l-75.235,17.029L181.25,275.854z M369.817,202.847L257.351,315.246l-58.592-58.56

	l112.471-112.398L369.817,202.847z"/>

</svg>

