<?xml version="1.0" encoding="utf-8"?>

<!-- License Agreement at http://iconmonstr.com/license/ -->

<!DOCTYPE svg PUBLIC "-//W3C//DTD SVG 1.1//EN" "http://www.w3.org/Graphics/SVG/1.1/DTD/svg11.dtd">
<svg version="1.1" xmlns="http://www.w3.org/2000/svg" xmlns:xlink="http://www.w3.org/1999/xlink" x="0px" y="0px"
	 width="512px" height="512px" viewBox="0 0 512 512" enable-background="new 0 0 512 512" xml:space="preserve">
<path id="instagram-6-icon" fill-rule="evenodd" clip-rule="evenodd" d="M414.474,224.292h-35.869
	c2.613,10.145,4.156,20.744,4.156,31.699c0,70.023-56.752,126.773-126.761,126.773s-126.763-56.75-126.763-126.773
	c0-10.955,1.549-21.555,4.162-31.699H97.53V398.61c0,8.742,7.096,15.832,15.86,15.832h285.219c8.766,0,15.864-7.09,15.864-15.832
	V224.292z M414.474,113.378c0-8.75-7.099-15.846-15.864-15.846h-47.526c-8.756,0-15.846,7.096-15.846,15.846v47.545
	c0,8.744,7.09,15.846,15.846,15.846h47.526c8.766,0,15.864-7.102,15.864-15.846V113.378z M256,176.769
	c-43.763,0-79.233,35.463-79.233,79.223c0,43.756,35.471,79.24,79.233,79.24c43.759,0,79.237-35.484,79.237-79.24
	C335.237,212.231,299.759,176.769,256,176.769 M414.474,461.999H97.53c-26.246,0-47.53-21.289-47.53-47.557V97.532
	c0-26.254,21.284-47.531,47.53-47.531h316.943c26.25,0,47.526,21.277,47.526,47.531v316.91
	C462,440.71,440.724,461.999,414.474,461.999"/>
</svg>
