<?xml version="1.0" encoding="utf-8"?>


<!-- The icon can be used freely in both personal and commercial projects with no attribution required, but always appreciated. 
You may NOT sub-license, resell, rent, redistribute or otherwise transfer the icon without express written permission from iconmonstr.com -->


<!DOCTYPE svg PUBLIC "-//W3C//DTD SVG 1.1//EN" "http://www.w3.org/Graphics/SVG/1.1/DTD/svg11.dtd">

<svg version="1.1" xmlns="http://www.w3.org/2000/svg" xmlns:xlink="http://www.w3.org/1999/xlink" x="0px" y="0px"

	 width="512px" height="512px" viewBox="0 0 512 512" enable-background="new 0 0 512 512" xml:space="preserve">

<path id="pinterest-icon" d="M265.653,50C153.22,50,96.526,130.612,96.526,197.833c0,40.702,15.411,76.914,48.462,90.41

	c5.418,2.215,10.275,0.077,11.846-5.924c1.093-4.153,3.681-14.631,4.835-18.991c1.584-5.936,0.97-8.018-3.403-13.191

	c-9.53-11.242-15.621-25.795-15.621-46.408c0-59.806,44.746-113.343,116.515-113.343c63.549,0,98.465,38.831,98.465,90.69

	c0,68.234-30.198,125.824-75.026,125.824c-24.759,0-43.29-20.475-37.351-45.585c7.115-29.981,20.894-62.334,20.894-83.975

	c0-19.37-10.398-35.527-31.918-35.527c-25.308,0-45.639,26.182-45.639,61.254c0,22.337,7.549,37.446,7.549,37.446

	s-25.898,109.737-30.439,128.954c-9.043,38.273-1.361,85.193-0.708,89.931c0.38,2.809,3.989,3.476,5.621,1.354

	c2.335-3.047,32.479-40.26,42.726-77.441c2.9-10.528,16.648-65.049,16.648-65.049c8.221,15.683,32.251,29.497,57.805,29.497

	c76.075,0,127.688-69.354,127.688-162.187C415.474,115.374,356.018,50,265.653,50z"/>

</svg>

