<svg version="1.1" id="Layer_1"
	 xmlns="http://www.w3.org/2000/svg" xmlns:xlink="http://www.w3.org/1999/xlink" x="0px" y="0px" viewBox="-124.9 272.2 400 250"
	 style="enable-background:new -124.9 272.2 400 250;" xml:space="preserve">
<g transform="translate(-115.453,-285.042)">
	<path d="M358.8,588.1c-14.6-11.7-36.5-17.6-65.7-17.6c-22.6,0-44,1.5-64.3,4.5v91.3l-76.3,0.2v-90.8h-40.4v90.8
		c-7.8,0-16.5,0-27.8,0c-27.6,0-48.5,0.8-62.7,13.4C7.5,692.4,0.5,706,0.5,730.6c0,22.2,7.3,34.2,21.9,45.9
		C37,788.2,58.9,794,88.1,794c22.6,0,44-1.5,64.3-4.5v-91.3l76.3-0.2v90.8h40.3v-90.9c7.6,0,16.4,0,27.8,0
		c27.6,0,48.5-0.7,62.7-13.3c14.1-12.6,21.2-26.2,21.2-50.8C380.7,611.8,373.4,599.8,358.8,588.1L358.8,588.1z M112.1,760.1
		c-7.2,1.2-15.2,1.8-23.9,1.8c-32.3,0-48.5-7.1-48.5-33.2c0-13,3.6-19.2,10.6-24.3c8.7-6.5,22.6-6.2,38.3-6.2c8.6,0,16.5,0,23.6,0
		V760.1L112.1,760.1z M330.2,661c-8.6,6.5-20.7,5.4-36.5,5.4c-8.6,0-15.5,0-24.6,0v-61.9c7.2-1.2,15.2-1.8,23.9-1.8
		c32.3,0,48.5,7.1,48.5,33.3C341.6,648.9,337.3,655.6,330.2,661z"/>
</g>
</svg>
